<svg xmlns="http://www.w3.org/2000/svg" xmlns:xlink="http://www.w3.org/1999/xlink" viewBox="0 0 2449.39 2156.68"><defs><style>.cls-1{mask:url(#mask);}.cls-2{mix-blend-mode:multiply;fill:url(#linear-gradient);}.cls-3{fill:none;}.cls-4{opacity:0.22;}.cls-5{clip-path:url(#clip-path);}.cls-6{fill:#fbfbfb;}.cls-10,.cls-11,.cls-12,.cls-13,.cls-14,.cls-15,.cls-16,.cls-17,.cls-18,.cls-19,.cls-20,.cls-21,.cls-22,.cls-23,.cls-24,.cls-25,.cls-26,.cls-27,.cls-28,.cls-29,.cls-30,.cls-31,.cls-32,.cls-33,.cls-34,.cls-35,.cls-36,.cls-37,.cls-38,.cls-39,.cls-40,.cls-41,.cls-42,.cls-43,.cls-44,.cls-45,.cls-46,.cls-47,.cls-48,.cls-49,.cls-50,.cls-51,.cls-52,.cls-53,.cls-54,.cls-55,.cls-56,.cls-57,.cls-58,.cls-59,.cls-60,.cls-61,.cls-62,.cls-63,.cls-64,.cls-65,.cls-66,.cls-67,.cls-68,.cls-69,.cls-7,.cls-70,.cls-71,.cls-72,.cls-73,.cls-74,.cls-75,.cls-76,.cls-77,.cls-78,.cls-79,.cls-8,.cls-80,.cls-81,.cls-82,.cls-83,.cls-84,.cls-85,.cls-86,.cls-87,.cls-88,.cls-9{opacity:0.65;}.cls-7{fill:url(#linear-gradient-2);}.cls-8{fill:url(#linear-gradient-3);}.cls-9{fill:url(#linear-gradient-4);}.cls-10{fill:url(#linear-gradient-5);}.cls-11{fill:url(#linear-gradient-6);}.cls-12{fill:url(#linear-gradient-7);}.cls-13{fill:url(#linear-gradient-8);}.cls-14{fill:url(#linear-gradient-9);}.cls-15{fill:url(#linear-gradient-10);}.cls-16{fill:url(#linear-gradient-11);}.cls-17{fill:url(#linear-gradient-12);}.cls-18{fill:url(#linear-gradient-13);}.cls-19{fill:url(#linear-gradient-14);}.cls-20{fill:url(#linear-gradient-15);}.cls-21{fill:url(#linear-gradient-16);}.cls-22{fill:url(#linear-gradient-17);}.cls-23{fill:url(#linear-gradient-18);}.cls-24{fill:url(#linear-gradient-19);}.cls-25{fill:url(#linear-gradient-20);}.cls-26{fill:url(#linear-gradient-21);}.cls-27{fill:url(#linear-gradient-22);}.cls-28{fill:url(#linear-gradient-23);}.cls-29{fill:url(#linear-gradient-24);}.cls-30{fill:url(#linear-gradient-25);}.cls-31{fill:url(#linear-gradient-26);}.cls-32{fill:url(#linear-gradient-27);}.cls-33{fill:url(#linear-gradient-28);}.cls-34{fill:url(#linear-gradient-29);}.cls-35{fill:url(#linear-gradient-30);}.cls-36{fill:url(#linear-gradient-31);}.cls-37{fill:url(#linear-gradient-32);}.cls-38{fill:url(#linear-gradient-33);}.cls-39{fill:url(#linear-gradient-34);}.cls-40{fill:url(#linear-gradient-35);}.cls-41{fill:url(#linear-gradient-36);}.cls-42{fill:url(#linear-gradient-37);}.cls-43{fill:url(#linear-gradient-38);}.cls-44{fill:url(#linear-gradient-39);}.cls-45{fill:url(#linear-gradient-40);}.cls-46{fill:url(#linear-gradient-41);}.cls-47{fill:url(#linear-gradient-42);}.cls-48{fill:url(#linear-gradient-43);}.cls-49{fill:url(#linear-gradient-44);}.cls-50{fill:url(#linear-gradient-45);}.cls-51{fill:url(#linear-gradient-46);}.cls-52{fill:url(#linear-gradient-47);}.cls-53{fill:url(#linear-gradient-48);}.cls-54{fill:url(#linear-gradient-49);}.cls-55{fill:url(#linear-gradient-50);}.cls-56{fill:url(#linear-gradient-51);}.cls-57{fill:url(#linear-gradient-52);}.cls-58{fill:url(#linear-gradient-53);}.cls-59{fill:url(#linear-gradient-54);}.cls-60{fill:url(#linear-gradient-55);}.cls-61{fill:url(#linear-gradient-56);}.cls-62{fill:url(#linear-gradient-57);}.cls-63{fill:url(#linear-gradient-58);}.cls-64{fill:url(#linear-gradient-59);}.cls-65{fill:url(#linear-gradient-60);}.cls-66{fill:url(#linear-gradient-61);}.cls-67{fill:url(#linear-gradient-62);}.cls-68{fill:url(#linear-gradient-63);}.cls-69{fill:url(#linear-gradient-64);}.cls-70{fill:url(#linear-gradient-65);}.cls-71{fill:url(#linear-gradient-66);}.cls-72{fill:url(#linear-gradient-67);}.cls-73{fill:url(#linear-gradient-68);}.cls-74{fill:url(#linear-gradient-69);}.cls-75{fill:url(#linear-gradient-70);}.cls-76{fill:url(#linear-gradient-71);}.cls-77{fill:url(#linear-gradient-72);}.cls-78{fill:url(#linear-gradient-73);}.cls-79{fill:url(#linear-gradient-74);}.cls-80{fill:url(#linear-gradient-75);}.cls-81{fill:url(#linear-gradient-76);}.cls-82{fill:url(#linear-gradient-77);}.cls-83{fill:url(#linear-gradient-78);}.cls-84{fill:url(#linear-gradient-79);}.cls-85{fill:url(#linear-gradient-80);}.cls-86{fill:url(#linear-gradient-81);}.cls-87{fill:url(#linear-gradient-82);}.cls-88{fill:url(#linear-gradient-83);}.cls-89{mask:url(#mask-2);}.cls-90{fill:url(#linear-gradient-84);}.cls-91{filter:url(#luminosity-noclip-2);}.cls-92{filter:url(#luminosity-noclip);}</style><filter id="luminosity-noclip" x="110.07" y="-8642" width="1379.44" height="32766" filterUnits="userSpaceOnUse" color-interpolation-filters="sRGB"><feFlood flood-color="#fff" result="bg"/><feBlend in="SourceGraphic" in2="bg"/></filter><mask id="mask" x="110.07" y="-8642" width="1379.44" height="32766" maskUnits="userSpaceOnUse"><g class="cls-92"/></mask><linearGradient id="linear-gradient" x1="104.92" y1="450" x2="1484.36" y2="450" gradientUnits="userSpaceOnUse"><stop offset="0"/><stop offset="0.08" stop-color="#3d3d3d"/><stop offset="0.16" stop-color="#777"/><stop offset="0.24" stop-color="#a8a8a8"/><stop offset="0.32" stop-color="#cecece"/><stop offset="0.39" stop-color="#e9e9e9"/><stop offset="0.45" stop-color="#f9f9f9"/><stop offset="0.5" stop-color="#fff"/><stop offset="0.55" stop-color="#f9f9f9"/><stop offset="0.61" stop-color="#e9e9e9"/><stop offset="0.68" stop-color="#cecece"/><stop offset="0.76" stop-color="#a8a8a8"/><stop offset="0.84" stop-color="#777"/><stop offset="0.92" stop-color="#3d3d3d"/><stop offset="1"/></linearGradient><clipPath id="clip-path" transform="translate(397.57 682.3)"><rect class="cls-3" width="1600" height="900"/></clipPath><linearGradient id="linear-gradient-2" x1="522.35" y1="1075.94" x2="1235.6" y2="1075.94" gradientTransform="translate(1018.19 -306.4) rotate(45)" gradientUnits="userSpaceOnUse"><stop offset="0" stop-color="#ececec"/><stop offset="1" stop-color="#999"/></linearGradient><linearGradient id="linear-gradient-3" x1="1044.42" y1="659.33" x2="1379.5" y2="659.33" gradientTransform="translate(821.19 -663.87) rotate(45)" xlink:href="#linear-gradient-2"/><linearGradient id="linear-gradient-4" x1="692.73" y1="475.67" x2="1262.22" y2="475.67" gradientTransform="matrix(0.89, 0.71, -0.89, 0.71, 601.57, -623.31)" xlink:href="#linear-gradient-2"/><linearGradient id="linear-gradient-5" x1="409.72" y1="605.88" x2="950.29" y2="605.88" gradientTransform="translate(627.64 -303.38) rotate(45)" xlink:href="#linear-gradient-2"/><linearGradient id="linear-gradient-6" x1="828.78" y1="-49.88" x2="1340.97" y2="-49.88" gradientTransform="translate(282.45 -781.69) rotate(45)" xlink:href="#linear-gradient-2"/><linearGradient id="linear-gradient-7" x1="274.06" y1="253.96" x2="786.25" y2="253.96" gradientTransform="translate(334.87 -300.5) rotate(45)" xlink:href="#linear-gradient-2"/><linearGradient id="linear-gradient-8" x1="-146.68" y1="617.54" x2="145.31" y2="617.54" gradientTransform="translate(436.46 181.35) rotate(45)" xlink:href="#linear-gradient-2"/><linearGradient id="linear-gradient-9" x1="20.58" y1="757.33" x2="367.49" y2="757.33" gradientTransform="translate(592.36 84.62) rotate(45)" xlink:href="#linear-gradient-2"/><linearGradient id="linear-gradient-10" x1="104.21" y1="826.34" x2="480.36" y2="826.34" gradientTransform="translate(669.92 35.35) rotate(45)" xlink:href="#linear-gradient-2"/><linearGradient id="linear-gradient-11" x1="313.28" y1="1088.85" x2="582.58" y2="1088.85" gradientTransform="translate(901.15 2.19) rotate(45)" xlink:href="#linear-gradient-2"/><linearGradient id="linear-gradient-12" x1="1070.58" y1="268.27" x2="1633.67" y2="268.27" gradientTransform="translate(585.7 -877.5) rotate(45)" xlink:href="#linear-gradient-2"/><linearGradient id="linear-gradient-13" x1="1580.6" y1="138.71" x2="1717.3" y2="138.71" gradientTransform="translate(581.14 -1125.43) rotate(45)" xlink:href="#linear-gradient-2"/><linearGradient id="linear-gradient-14" x1="396.91" y1="1094.1" x2="822.96" y2="1094.1" gradientTransform="translate(952.31 -110.83) rotate(45)" xlink:href="#linear-gradient-2"/><linearGradient id="linear-gradient-15" x1="688.37" y1="955.72" x2="1142.77" y2="955.72" gradientTransform="translate(943.87 -367.49) rotate(45)" gradientUnits="userSpaceOnUse"><stop offset="0" stop-color="#666"/><stop offset="1" stop-color="#d9d9d9"/></linearGradient><linearGradient id="linear-gradient-16" x1="1315.87" y1="444.85" x2="1704.26" y2="444.85" gradientTransform="translate(2060.93 2029.54) rotate(-135)" xlink:href="#linear-gradient-15"/><linearGradient id="linear-gradient-17" x1="988.03" y1="-4.06" x2="1424.6" y2="-4.06" gradientTransform="translate(350.43 -854.16) rotate(45)" xlink:href="#linear-gradient-15"/><linearGradient id="linear-gradient-18" x1="1271.83" y1="26.94" x2="1580.57" y2="26.94" gradientTransform="translate(436.73 -1000.54) rotate(45)" xlink:href="#linear-gradient-15"/><linearGradient id="linear-gradient-19" x1="62.39" y1="860.87" x2="285.87" y2="860.87" gradientTransform="translate(659.74 129.02) rotate(45)" xlink:href="#linear-gradient-15"/><linearGradient id="linear-gradient-20" x1="229.65" y1="974.38" x2="560.62" y2="974.38" gradientTransform="translate(804.72 5.98) rotate(45)" xlink:href="#linear-gradient-15"/><linearGradient id="linear-gradient-21" x1="561.67" y1="688.17" x2="1135.53" y2="688.17" gradientTransform="translate(735.21 -398.5) rotate(45)" xlink:href="#linear-gradient-15"/><linearGradient id="linear-gradient-22" x1="1530.83" y1="314.71" x2="1749.58" y2="314.71" gradientTransform="matrix(1.29, 0.71, -1.29, 0.71, -187.11, -944.62)" xlink:href="#linear-gradient-2"/><linearGradient id="linear-gradient-23" x1="802.05" y1="792.61" x2="1020.8" y2="792.61" gradientTransform="translate(827.49 -412.33) rotate(45)" xlink:href="#linear-gradient-2"/><linearGradient id="linear-gradient-24" x1="480.54" y1="1276.38" x2="709.27" y2="1276.38" gradientTransform="translate(1076.72 -46.84) rotate(45)" xlink:href="#linear-gradient-2"/><linearGradient id="linear-gradient-25" x1="892.65" y1="405.52" x2="1369.86" y2="405.52" gradientTransform="matrix(-1.08, -0.71, 1.08, -0.71, 2236.94, 1167.22)" xlink:href="#linear-gradient-2"/><linearGradient id="linear-gradient-26" x1="264.96" y1="477.67" x2="849.69" y2="477.67" gradientTransform="translate(500.95 -254.18) rotate(45)" gradientUnits="userSpaceOnUse"><stop offset="0" stop-color="#d9d9d9"/><stop offset="1" stop-color="#333"/></linearGradient><linearGradient id="linear-gradient-27" x1="854.85" y1="-188.35" x2="1257.34" y2="-188.35" gradientTransform="translate(176.14 -801.94) rotate(45)" xlink:href="#linear-gradient-26"/><linearGradient id="linear-gradient-28" x1="203.22" y1="-74.87" x2="845.69" y2="-74.87" gradientTransform="translate(100.64 -392.74) rotate(44.99)" xlink:href="#linear-gradient-26"/><linearGradient id="linear-gradient-29" x1="469.05" y1="30.19" x2="871.54" y2="30.19" gradientTransform="translate(217.67 -465.13) rotate(45)" xlink:href="#linear-gradient-26"/><linearGradient id="linear-gradient-30" x1="-63.05" y1="668.15" x2="294.97" y2="668.15" gradientTransform="translate(506.4 113.69) rotate(45)" xlink:href="#linear-gradient-26"/><linearGradient id="linear-gradient-31" x1="589.79" y1="402.89" x2="1008.94" y2="402.89" gradientTransform="translate(519.08 -447.25) rotate(45)" xlink:href="#linear-gradient-26"/><linearGradient id="linear-gradient-32" x1="271.46" y1="960.59" x2="713.64" y2="960.59" gradientTransform="translate(823.41 -66.97) rotate(44.99)" xlink:href="#linear-gradient-26"/><linearGradient id="linear-gradient-33" x1="1228.01" y1="1.4" x2="1508.22" y2="1.4" gradientTransform="translate(401.73 -967.02) rotate(45)" xlink:href="#linear-gradient-26"/><linearGradient id="linear-gradient-34" x1="1436.02" y1="273.74" x2="1759.08" y2="273.74" gradientTransform="matrix(-0.9, -0.71, 0.9, -0.71, 2752.01, 1638.98)" xlink:href="#linear-gradient-26"/><linearGradient id="linear-gradient-35" x1="355.09" y1="1169.37" x2="546.98" y2="1169.37" gradientTransform="translate(958.97 23.57) rotate(45)" xlink:href="#linear-gradient-26"/><linearGradient id="linear-gradient-36" x1="999.89" y1="366.34" x2="1675.49" y2="366.34" gradientTransform="translate(650.87 -838.61) rotate(45)" xlink:href="#linear-gradient-26"/><linearGradient id="linear-gradient-37" x1="714.64" y1="-55.53" x2="1299.15" y2="-55.53" gradientTransform="translate(255.65 -728.24) rotate(45)" gradientUnits="userSpaceOnUse"><stop offset="0" stop-color="#ccc"/><stop offset="1" stop-color="#f2f2f2"/></linearGradient><linearGradient id="linear-gradient-38" x1="-21.24" y1="650.36" x2="455.99" y2="650.36" gradientTransform="translate(523.54 36.78) rotate(45)" xlink:href="#linear-gradient-37"/><linearGradient id="linear-gradient-39" x1="459.45" y1="348.59" x2="1080.61" y2="348.59" gradientTransform="translate(472.07 -442.41) rotate(45)" xlink:href="#linear-gradient-37"/><linearGradient id="linear-gradient-40" x1="926.9" y1="89.23" x2="1466.41" y2="89.23" gradientTransform="translate(413.59 -820.03) rotate(45)" xlink:href="#linear-gradient-37"/><linearGradient id="linear-gradient-41" x1="187.84" y1="976.65" x2="430.63" y2="976.65" gradientTransform="translate(781.11 67.36) rotate(45)" xlink:href="#linear-gradient-37"/><linearGradient id="linear-gradient-42" x1="526.07" y1="811.08" x2="1092.56" y2="811.08" gradientTransform="translate(810.57 -334.71) rotate(45)" xlink:href="#linear-gradient-37"/><linearGradient id="linear-gradient-43" x1="438.72" y1="948.29" x2="1240.01" y2="948.29" gradientTransform="translate(916.45 -315.77) rotate(45)" xlink:href="#linear-gradient-37"/><linearGradient id="linear-gradient-44" x1="539.72" y1="475.2" x2="1248.92" y2="475.2" gradientTransform="translate(597.91 -493.18) rotate(45)" xlink:href="#linear-gradient-2"/><linearGradient id="linear-gradient-45" x1="146.02" y1="823.9" x2="610.7" y2="823.9" gradientTransform="translate(693.38 -26.23) rotate(45)" xlink:href="#linear-gradient-2"/><linearGradient id="linear-gradient-46" x1="1059.71" y1="-102.62" x2="1382.78" y2="-102.62" gradientTransform="translate(285.19 -893.67) rotate(45)" xlink:href="#linear-gradient-2"/><linearGradient id="linear-gradient-47" x1="346.59" y1="409.56" x2="737.04" y2="409.56" gradientTransform="translate(448.26 -263.16) rotate(45)" xlink:href="#linear-gradient-2"/><linearGradient id="linear-gradient-48" x1="1219.11" y1="377.35" x2="1601.51" y2="377.35" gradientTransform="translate(679.96 -886.75) rotate(45)" xlink:href="#linear-gradient-2"/><linearGradient id="linear-gradient-49" x1="-199.8" y1="-77.61" x2="417.92" y2="-77.61" gradientTransform="translate(-22.94 -99.86) rotate(45)" xlink:href="#linear-gradient-2"/><linearGradient id="linear-gradient-50" x1="-355.75" y1="466.49" x2="-179.81" y2="466.49" gradientTransform="translate(251.42 325.97) rotate(45)" xlink:href="#linear-gradient-2"/><linearGradient id="linear-gradient-51" x1="160.37" y1="-231.95" x2="700.94" y2="-231.95" gradientTransform="translate(-37.87 -372.47) rotate(45)" xlink:href="#linear-gradient-2"/><linearGradient id="linear-gradient-52" x1="-230.31" y1="452.68" x2="224.13" y2="452.68" gradientTransform="translate(319.17 134.75) rotate(45)" xlink:href="#linear-gradient-2"/><linearGradient id="linear-gradient-53" x1="743.16" y1="-383.4" x2="1090.08" y2="-383.4" gradientTransform="translate(-2.64 -760.42) rotate(45)" xlink:href="#linear-gradient-2"/><linearGradient id="linear-gradient-54" x1="630.29" y1="-452.41" x2="1006.45" y2="-452.41" gradientTransform="translate(-80.22 -711.14) rotate(45)" xlink:href="#linear-gradient-2"/><linearGradient id="linear-gradient-55" x1="-313.94" y1="377.99" x2="122.63" y2="377.99" gradientTransform="translate(239.26 178.35) rotate(45)" xlink:href="#linear-gradient-15"/><linearGradient id="linear-gradient-56" x1="824.79" y1="-486.93" x2="1048.26" y2="-486.93" gradientTransform="translate(-70.01 -804.84) rotate(45)" xlink:href="#linear-gradient-15"/><linearGradient id="linear-gradient-57" x1="850.63" y1="-311.69" x2="1173.71" y2="-311.69" gradientTransform="translate(76.06 -807) rotate(45)" xlink:href="#linear-gradient-15"/><linearGradient id="linear-gradient-58" x1="435.09" y1="211.74" x2="876.91" y2="211.74" gradientTransform="translate(341.82 -401.82) rotate(45)" xlink:href="#linear-gradient-15"/><linearGradient id="linear-gradient-59" x1="124.41" y1="236.54" x2="636.22" y2="236.54" gradientTransform="translate(278.67 -199.65) rotate(45)" xlink:href="#linear-gradient-15"/><linearGradient id="linear-gradient-60" x1="101.72" y1="-28.96" x2="520.87" y2="-28.96" gradientTransform="translate(70.7 -228.6) rotate(45)" xlink:href="#linear-gradient-26"/><linearGradient id="linear-gradient-61" x1="-397.57" y1="294.36" x2="39" y2="294.36" gradientTransform="translate(155.63 212.99) rotate(45)" xlink:href="#linear-gradient-26"/><linearGradient id="linear-gradient-62" x1="-188.5" y1="448.83" x2="357.28" y2="448.83" gradientTransform="translate(342.05 71.76) rotate(44.99)" xlink:href="#linear-gradient-37"/><linearGradient id="linear-gradient-63" x1="615.31" y1="-256.75" x2="1131.89" y2="-256.75" gradientTransform="translate(74.32 -692.93) rotate(45)" xlink:href="#linear-gradient-37"/><linearGradient id="linear-gradient-64" x1="30.04" y1="25.34" x2="651.2" y2="25.34" gradientTransform="translate(117.69 -233.43) rotate(45)" xlink:href="#linear-gradient-37"/><linearGradient id="linear-gradient-65" x1="-200.72" y1="207.19" x2="183.76" y2="207.19" gradientTransform="translate(144.02 66.68) rotate(45)" xlink:href="#linear-gradient-2"/><linearGradient id="linear-gradient-66" x1="18.09" y1="-179.44" x2="570.94" y2="-179.44" gradientTransform="translate(-40.63 -260.78) rotate(45)" xlink:href="#linear-gradient-2"/><linearGradient id="linear-gradient-67" x1="499.96" y1="-449.96" x2="964.63" y2="-449.96" gradientTransform="translate(-103.67 -649.66) rotate(45)" xlink:href="#linear-gradient-2"/><linearGradient id="linear-gradient-68" x1="-272.12" y1="476.55" x2="50.95" y2="476.55" gradientTransform="translate(304.59 217.78) rotate(45)" xlink:href="#linear-gradient-2"/><linearGradient id="linear-gradient-69" x1="336.37" y1="-17" x2="764.07" y2="-17" gradientTransform="translate(149.16 -394.07) rotate(45)" xlink:href="#linear-gradient-2"/><linearGradient id="linear-gradient-70" x1="765.34" y1="-206.32" x2="1215.52" y2="-206.32" gradientTransform="translate(144.2 -760.77) rotate(45)" xlink:href="#linear-gradient-2"/><linearGradient id="linear-gradient-71" x1="-104.87" y1="507.94" x2="489.96" y2="507.94" gradientTransform="translate(415.56 12.62) rotate(45)" xlink:href="#linear-gradient-2"/><linearGradient id="linear-gradient-72" x1="1171.31" y1="594.25" x2="1884.56" y2="594.25" gradientTransform="translate(867.72 -906.36) rotate(45)" xlink:href="#linear-gradient-2"/><linearGradient id="linear-gradient-73" x1="1047.65" y1="939.07" x2="1485.83" y2="939.07" gradientTransform="translate(1035.16 -620.69) rotate(45)" xlink:href="#linear-gradient-2"/><linearGradient id="linear-gradient-74" x1="1142.06" y1="1068.22" x2="1634.88" y2="1068.22" gradientTransform="translate(1161.94 -668.91) rotate(45)" xlink:href="#linear-gradient-2"/><linearGradient id="linear-gradient-75" x1="1136.57" y1="1127.13" x2="1355.32" y2="1127.13" gradientTransform="translate(1161.97 -550.89) rotate(45)" xlink:href="#linear-gradient-2"/><linearGradient id="linear-gradient-76" x1="1685.25" y1="462.72" x2="1968.19" y2="462.72" gradientTransform="translate(862.26 -1156.18) rotate(45)" xlink:href="#linear-gradient-26"/><linearGradient id="linear-gradient-77" x1="1573.3" y1="330.53" x2="1842.75" y2="330.53" gradientTransform="translate(734.09 -1111.02) rotate(45)" xlink:href="#linear-gradient-26"/><linearGradient id="linear-gradient-78" x1="1334.41" y1="700.86" x2="2010" y2="700.86" gradientTransform="translate(985.36 -977.15) rotate(45)" xlink:href="#linear-gradient-26"/><linearGradient id="linear-gradient-79" x1="1613.98" y1="623.8" x2="2051.82" y2="623.8" gradientTransform="translate(977.85 -1113.31) rotate(45)" xlink:href="#linear-gradient-37"/><linearGradient id="linear-gradient-80" x1="974.48" y1="949.57" x2="1705.26" y2="949.57" gradientTransform="translate(1063.81 -669.29) rotate(45)" xlink:href="#linear-gradient-37"/><linearGradient id="linear-gradient-81" x1="564.17" y1="1140.11" x2="1232.72" y2="1140.11" gradientTransform="translate(1069.29 -301.37) rotate(45)" xlink:href="#linear-gradient-37"/><linearGradient id="linear-gradient-82" x1="1211.81" y1="635.54" x2="1594.21" y2="635.54" gradientTransform="translate(860.36 -805.95) rotate(45)" xlink:href="#linear-gradient-2"/><linearGradient id="linear-gradient-83" x1="1446.65" y1="519.3" x2="1926.37" y2="519.3" gradientTransform="translate(861.28 -1040.51) rotate(45)" xlink:href="#linear-gradient-2"/><filter id="luminosity-noclip-2" x="110.07" y="0" width="1379.44" height="900" filterUnits="userSpaceOnUse" color-interpolation-filters="sRGB"><feFlood flood-color="#fff" result="bg"/><feBlend in="SourceGraphic" in2="bg"/></filter><mask id="mask-2" x="507.64" y="682.3" width="1379.44" height="900" maskUnits="userSpaceOnUse"><g class="cls-91"><g transform="translate(397.57 682.3)"><g class="cls-1"><rect class="cls-2" x="110.07" width="1379.44" height="900"/></g></g></g></mask><linearGradient id="linear-gradient-84" x1="502.48" y1="1132.3" x2="1881.93" y2="1132.3" gradientUnits="userSpaceOnUse"><stop offset="0" stop-color="#fff"/><stop offset="0.5" stop-color="#fff"/><stop offset="1" stop-color="#fff"/></linearGradient></defs><title>login-bk</title><g id="Layer_2" data-name="Layer 2" class="cls-4"><g class="cls-5"><rect class="cls-6" x="397.57" y="682.3" width="1600" height="900"/><rect class="cls-7" x="389.42" y="1061.16" width="979.12" height="29.57" transform="translate(-105.78 1618.9) rotate(-45)"/><rect class="cls-8" x="989.81" y="644.54" width="444.3" height="29.56" transform="translate(286.33 1732.4) rotate(-45)"/><rect class="cls-9" x="559.96" y="389.39" width="978.01" height="29.57" transform="translate(418.97 1542.32) rotate(-44.99)"/><rect class="cls-10" x="312.55" y="591.1" width="734.91" height="29.57" transform="translate(168.32 1340.64) rotate(-45)"/><rect class="cls-11" x="737.49" y="-64.66" width="694.77" height="29.57" transform="translate(750.55 1434.78) rotate(-45)"/><rect class="cls-12" x="182.77" y="239.17" width="694.77" height="29.57" transform="translate(373.28 1131.57) rotate(-45)"/><rect class="cls-13" x="-192.37" y="602.75" width="383.38" height="29.57" transform="translate(-39.29 862.69) rotate(-45)"/><rect class="cls-14" x="-36.49" y="742.55" width="461.04" height="29.57" transform="translate(-81.12 1041.34) rotate(-45)"/><rect class="cls-15" x="41.09" y="811.56" width="502.4" height="29.57" transform="translate(-101.13 1131) rotate(-45)"/><rect class="cls-16" x="272.29" y="1074.06" width="351.28" height="29.57" transform="translate(-241.18 1317.97) rotate(-45)"/><rect class="cls-17" x="968.75" y="253.49" width="766.75" height="29.57" transform="translate(603.88 1716.95) rotate(-45)"/><rect class="cls-18" x="1567.08" y="123.93" width="163.75" height="29.57" transform="translate(782.53 1889) rotate(-45)"/><rect class="cls-19" x="323.45" y="1079.32" width="572.95" height="29.57" transform="translate(-197.44 1434.07) rotate(-45)"/><rect class="cls-20" x="609.04" y="940.93" width="613.06" height="29.56" transform="translate(-10.06 1609.54) rotate(-45)"/><rect class="cls-21" x="1047.87" y="632.42" width="519.69" height="29.57" transform="translate(322.94 1796.55) rotate(-45)"/><rect class="cls-22" x="912.4" y="-18.84" width="587.83" height="29.57" transform="translate(753.74 1534.08) rotate(-45)"/><rect class="cls-23" x="1222.67" y="12.16" width="407.06" height="29.57" transform="translate(796.19 1698.62) rotate(-45)"/><rect class="cls-24" x="30.89" y="846.08" width="286.48" height="29.57" transform="translate(-160.16 1057.59) rotate(-45)"/><rect class="cls-25" x="175.89" y="959.59" width="438.5" height="29.57" transform="translate(-175.68 1247.09) rotate(-45)"/><rect class="cls-26" x="457.6" y="673.39" width="782" height="29.57" transform="translate(159.51 1483.96) rotate(-45)"/><rect class="cls-27" x="1262.89" y="422.86" width="508.77" height="29.57" transform="translate(532.47 1883.3) rotate(-45)"/><rect class="cls-28" x="771.53" y="777.82" width="279.8" height="29.56" transform="translate(104.07 1559.01) rotate(-45)"/><rect class="cls-29" x="447.95" y="1261.6" width="293.92" height="29.57" transform="translate(-330.7 1476.74) rotate(-45)"/><rect class="cls-30" x="965.38" y="65.72" width="981.77" height="29.57" transform="translate(767.24 1735.69) rotate(-45)"/><rect class="cls-31" x="158.64" y="462.89" width="797.37" height="29.57" transform="translate(223.04 1216.24) rotate(-45)"/><rect class="cls-32" x="786.27" y="-203.13" width="539.64" height="29.57" transform="translate(840.08 1373.9) rotate(-45)"/><rect class="cls-33" x="84.95" y="-89.65" width="879.02" height="29.57" transform="translate(604.08 1031.19) rotate(-44.99)"/><rect class="cls-34" x="400.47" y="15.4" width="539.64" height="29.57" transform="translate(572.55 1165.11) rotate(-45)"/><rect class="cls-35" x="-122.42" y="653.37" width="476.75" height="29.57" transform="translate(-40.91 959.98) rotate(-45)"/><rect class="cls-36" x="517.76" y="388.11" width="563.2" height="29.57" transform="translate(346.83 1365.6) rotate(-45)"/><rect class="cls-37" x="194.67" y="945.8" width="595.77" height="29.57" transform="translate(-137.37 1311.84) rotate(-44.99)"/><rect class="cls-38" x="1184.77" y="-13.39" width="366.71" height="29.57" transform="translate(797.32 1650.14) rotate(-45)"/><rect class="cls-39" x="1282.46" y="300.96" width="546.19" height="29.57" transform="translate(629.94 1874.76) rotate(-45)"/><rect class="cls-40" x="330.14" y="1154.58" width="241.79" height="29.57" transform="translate(-297.19 1343.73) rotate(-45)"/><rect class="cls-41" x="874.76" y="351.56" width="925.86" height="29.57" transform="translate(530.34 1735.52) rotate(-45)"/><rect class="cls-42" x="608.37" y="-70.31" width="797.06" height="29.57" transform="translate(731.74 1378.02) rotate(-45)"/><rect class="cls-43" x="-105.29" y="635.58" width="645.34" height="29.57" transform="translate(1.36 1026.49) rotate(-45)"/><rect class="cls-44" x="345.59" y="333.81" width="848.88" height="29.57" transform="translate(376.63 1328.93) rotate(-45)"/><rect class="cls-45" x="829.94" y="74.45" width="733.42" height="29.57" transform="translate(684.96 1554.6) rotate(-45)"/><rect class="cls-46" x="152.34" y="961.87" width="313.79" height="29.57" transform="translate(-202.42 1186.95) rotate(-45)"/><rect class="cls-47" x="423.53" y="796.3" width="771.58" height="29.57" transform="translate(61.09 1492.13) rotate(-45)"/><rect class="cls-48" x="287.55" y="933.51" width="1103.63" height="29.57" transform="translate(-27.13 1553.63) rotate(-45)"/><rect class="cls-49" x="407.62" y="460.41" width="973.4" height="29.57" transform="translate(323.48 1453.81) rotate(-45)"/><rect class="cls-50" x="64.57" y="809.11" width="627.58" height="29.57" transform="translate(-74.19 1191.13) rotate(-45)"/><rect class="cls-51" x="1007.58" y="-117.4" width="427.33" height="29.57" transform="translate(827.89 1515.85) rotate(-45)"/><rect class="cls-52" x="280.5" y="394.77" width="522.62" height="29.57" transform="translate(266.66 1185.34) rotate(-45)"/><rect class="cls-53" x="1154.69" y="362.57" width="511.23" height="29.57" transform="translate(543.84 1790.12) rotate(-45)"/><rect class="cls-54" x="-312.95" y="-92.4" width="844.02" height="29.57" transform="translate(484.4 736.69) rotate(-45)"/><rect class="cls-55" x="-377.41" y="451.7" width="219.25" height="29.57" transform="translate(-10.7 629.57) rotate(-45)"/><rect class="cls-56" x="63.2" y="-246.73" width="734.91" height="29.57" transform="translate(687.74 918.89) rotate(-45)"/><rect class="cls-57" x="-309.64" y="437.9" width="613.11" height="29.57" transform="translate(76.59 812.68) rotate(-45)"/><rect class="cls-58" x="686.1" y="-398.18" width="461.05" height="29.57" transform="translate(937.12 1218.14) rotate(-45)"/><rect class="cls-59" x="567.17" y="-467.19" width="502.4" height="29.57" transform="translate(957.12 1128.46) rotate(-45)"/><rect class="cls-60" x="-389.57" y="363.21" width="587.83" height="29.57" transform="translate(102.27 725.37) rotate(-45)"/><rect class="cls-61" x="793.29" y="-501.72" width="286.48" height="29.57" transform="translate(1016.18 1201.9) rotate(-45)"/><rect class="cls-62" x="798.51" y="-326.47" width="427.33" height="29.57" transform="translate(914.42 1306.72) rotate(-45)"/><rect class="cls-63" x="358.37" y="196.96" width="595.26" height="29.57" transform="translate(439.96 1208.13) rotate(-45)"/><rect class="cls-64" x="33.19" y="221.76" width="694.25" height="29.57" transform="translate(341.71 1020.52) rotate(-45)"/><rect class="cls-65" x="29.7" y="-43.74" width="563.2" height="29.57" transform="translate(509.22 893.94) rotate(-45)"/><rect class="cls-66" x="-473.2" y="279.58" width="587.83" height="29.57" transform="translate(136.91 641.74) rotate(-45)"/><rect class="cls-67" x="-286.75" y="434.05" width="742.27" height="29.57" transform="translate(104.94 873.4) rotate(-44.99)"/><rect class="cls-68" x="523.11" y="-271.53" width="700.99" height="29.57" transform="translate(834.99 1224.83) rotate(-45)"/><rect class="cls-69" x="-83.82" y="10.56" width="848.88" height="29.57" transform="translate(479.42 930.58) rotate(-45)"/><rect class="cls-70" x="-265.56" y="192.4" width="514.17" height="29.57" transform="translate(248.58 736.99) rotate(-45)"/><rect class="cls-71" x="-81.62" y="-194.22" width="752.28" height="29.57" transform="translate(610.69 837.99) rotate(-45)"/><rect class="cls-72" x="418.51" y="-464.74" width="627.58" height="29.57" transform="translate(930.29 1068.34) rotate(-45)"/><rect class="cls-73" x="-324.25" y="461.77" width="427.33" height="29.57" transform="translate(28.2 743.68) rotate(-45)"/><rect class="cls-74" x="262.58" y="-31.78" width="575.29" height="29.57" transform="translate(570.77 1066.41) rotate(-45)"/><rect class="cls-75" x="686.89" y="-221.1" width="607.09" height="29.57" transform="translate(833.55 1322.21) rotate(-45)"/><rect class="cls-76" x="-213.28" y="493.15" width="811.64" height="29.57" transform="translate(94.8 967.22) rotate(-45)"/><rect class="cls-77" x="1038.37" y="579.47" width="979.13" height="29.57" transform="translate(424.89 1936.76) rotate(-45)"/><rect class="cls-78" x="971.69" y="924.29" width="590.11" height="29.57" transform="translate(104.58 1853.18) rotate(-45)"/><rect class="cls-79" x="1054.78" y="1053.44" width="667.38" height="29.57" transform="translate(48.88 1976.89) rotate(-45)"/><rect class="cls-80" x="1106.04" y="1112.34" width="279.8" height="29.57" transform="translate(-34.5 1893.48) rotate(-45)"/><rect class="cls-81" x="1641.44" y="447.94" width="370.56" height="29.57" transform="translate(605.43 2109.55) rotate(-45)"/><rect class="cls-82" x="1532.29" y="315.74" width="351.47" height="29.57" transform="translate(664.19 1986.97) rotate(-45)"/><rect class="cls-83" x="1209.28" y="686.08" width="925.86" height="29.57" transform="translate(391.76 2070.01) rotate(-45)"/><rect class="cls-84" x="1538.08" y="609.02" width="589.63" height="29.57" transform="translate(493.28 2160.98) rotate(-45)"/><rect class="cls-85" x="837.91" y="934.79" width="1003.92" height="29.57" transform="translate(118.55 1907.77) rotate(-45)"/><rect class="cls-86" x="440.49" y="1125.32" width="915.9" height="29.57" transform="translate(-145.46 1651.49) rotate(-45)"/><rect class="cls-87" x="1147.39" y="620.75" width="511.23" height="29.57" transform="translate(359.12 1860.56) rotate(-45)"/><rect class="cls-88" x="1362.08" y="504.52" width="648.86" height="29.57" transform="translate(524.4 2027.05) rotate(-45)"/></g><g class="cls-89"><rect class="cls-90" x="507.64" y="682.3" width="1379.44" height="900"/></g></g></svg>