<svg id="Layer_1" data-name="Layer 1" xmlns="http://www.w3.org/2000/svg" viewBox="0 0 176.25 184.2"><defs><style>.cls-1,.cls-2{fill:none;stroke:#000;stroke-miterlimit:10;stroke-width:11.25px;}.cls-2{stroke-linecap:square;}</style></defs><title>chat</title><path class="cls-1" d="M639.22,495.21h-45a15,15,0,0,0-15,15v60a15,15,0,0,0,15,15v30l30-30h45a15,15,0,0,0,15-15V540.57" transform="translate(-573.59 -444.59)"/><path class="cls-2" d="M729.22,540.21a15,15,0,0,0,15-15v-60a15,15,0,0,0-15-15h-75a15,15,0,0,0-15,15v60a15,15,0,0,0,15,15h45l30,30Z" transform="translate(-573.59 -444.59)"/></svg>