<svg id="Layer_1" data-name="Layer 1" xmlns="http://www.w3.org/2000/svg" viewBox="0 0 375 375"><title>faq-q</title><circle id="doo-circle" cx="187.5" cy="187.5" r="187.5" style="fill:#fff"/><g id="doo-corner"><g id="doo-corner-2" data-name="doo-corner"><rect x="181.82" y="278.35" width="94.18" height="2.69" style="fill:#90caf9"/><rect x="181.82" y="273.31" width="94.18" height="2.69" style="fill:#90caf9"/><rect x="181.82" y="267.64" width="94.18" height="2.69" style="fill:#90caf9"/><rect x="181.82" y="262.4" width="94.18" height="2.69" style="fill:#90caf9"/><rect x="181.82" y="257.17" width="94.18" height="2.69" style="fill:#90caf9"/><rect x="181.82" y="251.93" width="94.18" height="2.69" style="fill:#90caf9"/><rect x="181.82" y="246.69" width="94.18" height="2.69" style="fill:#90caf9"/><rect x="239.34" y="241.45" width="36.66" height="2.69" style="fill:#90caf9"/><rect x="239.34" y="236.21" width="36.66" height="2.69" style="fill:#90caf9"/><rect x="239.35" y="230.66" width="36.65" height="2.69" style="fill:#90caf9"/><rect x="239.34" y="225.42" width="36.66" height="2.69" style="fill:#90caf9"/><rect x="239.34" y="220.18" width="36.66" height="2.69" style="fill:#90caf9"/><rect x="239.34" y="219.75" width="36.66" height="2.69" style="fill:#90caf9"/><rect x="239.35" y="214.51" width="36.65" height="2.69" style="fill:#90caf9"/><rect x="239.34" y="209.27" width="36.66" height="2.69" style="fill:#90caf9"/><rect x="239.35" y="204.03" width="36.65" height="2.69" style="fill:#90caf9"/><rect x="239.34" y="198.79" width="36.66" height="2.69" style="fill:#90caf9"/><rect x="239.35" y="193.56" width="36.65" height="2.69" style="fill:#90caf9"/></g></g><g id="doo-q"><path d="M732.9,518.21c0-32.74,27.68-59.27,61.83-59.27s61.84,26.53,61.84,59.27c0,0,0,.09,0,.14H893v-.14c0-52-44-94.17-98.25-94.17s-98.24,42.16-98.24,94.17c0,51.39,43,93.14,96.34,94.12v-35C759.57,576.41,732.9,550.32,732.9,518.21Z" transform="translate(-617 -331)"/><circle cx="315" cy="267" r="16"/></g></svg>