<svg id="Layer_1" data-name="Layer 1" xmlns="http://www.w3.org/2000/svg" viewBox="0 0 375 375"><title>faq-a</title><circle id="doo-circle" cx="187.5" cy="187.5" r="187.5" style="fill:#fff"/><g id="doo-corner"><rect x="191.4" y="220.59" width="40.42" height="2.74" style="fill:#29abe2"/><rect x="191.4" y="225.91" width="41.31" height="2.74" style="fill:#29abe2"/><rect x="191.4" y="231.19" width="41.41" height="2.74" style="fill:#29abe2"/><rect x="191.4" y="236.57" width="41.2" height="2.74" style="fill:#29abe2"/><rect x="191.4" y="241.84" width="41.41" height="2.74" style="fill:#29abe2"/><rect x="191.4" y="247.23" width="41.15" height="2.74" style="fill:#29abe2"/><polygon points="191.54 86.58 191.54 89.04 192.65 89.04 191.54 86.58" style="fill:#29abe2"/><polygon points="193.54 91.26 191.49 91.26 191.49 93.99 194.78 93.99 193.54 91.26" style="fill:#29abe2"/><polygon points="191.52 99.4 197.45 99.4 196.21 96.66 191.52 96.66 191.52 99.4" style="fill:#29abe2"/><polygon points="191.52 104.73 199.87 104.73 198.63 101.99 191.52 101.99 191.52 104.73" style="fill:#29abe2"/><polygon points="191.52 110.06 202.28 110.06 201.04 107.32 191.52 107.32 191.52 110.06" style="fill:#29abe2"/><polygon points="191.52 115.39 204.69 115.39 203.45 112.65 191.52 112.65 191.52 115.39" style="fill:#29abe2"/><polygon points="191.52 120.72 207.1 120.72 205.86 117.98 191.52 117.98 191.52 120.72" style="fill:#29abe2"/><polygon points="191.52 126.05 209.52 126.05 208.28 123.31 191.52 123.31 191.52 126.05" style="fill:#29abe2"/><polygon points="191.52 131.81 212.13 131.81 210.89 129.07 191.52 129.07 191.52 131.81" style="fill:#29abe2"/><polygon points="191.52 137.14 214.54 137.14 213.3 134.4 191.52 134.4 191.52 137.14" style="fill:#29abe2"/><polygon points="191.52 142.47 216.95 142.47 215.71 139.73 191.52 139.73 191.52 142.47" style="fill:#29abe2"/><polygon points="191.52 148.12 219.51 148.12 218.27 145.38 191.52 145.38 191.52 148.12" style="fill:#29abe2"/><polygon points="191.52 153.45 221.92 153.45 220.68 150.71 191.52 150.71 191.52 153.45" style="fill:#29abe2"/><polygon points="191.52 158.78 224.33 158.78 223.09 156.04 191.52 156.04 191.52 158.78" style="fill:#29abe2"/><polygon points="191.52 164.11 226.75 164.11 225.51 161.37 191.52 161.37 191.52 164.11" style="fill:#29abe2"/><polygon points="191.52 169.44 229.16 169.44 227.92 166.7 191.52 166.7 191.52 169.44" style="fill:#29abe2"/><polygon points="191.52 174.76 231.57 174.76 230.33 172.03 191.52 172.03 191.52 174.76" style="fill:#29abe2"/><polygon points="234.18 180.53 232.94 177.79 192.63 177.79 193.69 180.53 234.18 180.53" style="fill:#29abe2"/><polygon points="236.59 185.86 235.36 183.12 194.71 183.12 195.78 185.86 236.59 185.86" style="fill:#29abe2"/><polygon points="239.01 191.19 237.77 188.45 196.79 188.45 197.86 191.19 239.01 191.19" style="fill:#29abe2"/><polygon points="241.42 196.52 240.18 193.78 198.88 193.78 199.94 196.52 241.42 196.52" style="fill:#29abe2"/><polygon points="243.83 201.85 242.59 199.11 200.96 199.11 202.03 201.85 243.83 201.85" style="fill:#29abe2"/><polygon points="246.25 207.18 245.01 204.44 203.04 204.44 204.11 207.18 246.25 207.18" style="fill:#29abe2"/><polygon points="248.66 212.5 247.42 209.77 205.13 209.77 206.19 212.5 248.66 212.5" style="fill:#29abe2"/><polygon points="251.07 217.83 249.83 215.1 207.21 215.1 208.28 217.83 251.07 217.83" style="fill:#29abe2"/><polygon points="253.58 223.37 252.34 220.63 209.37 220.63 210.44 223.37 253.58 223.37" style="fill:#29abe2"/><polygon points="255.99 228.69 254.75 225.96 211.45 225.96 212.53 228.69 255.99 228.69" style="fill:#29abe2"/><polygon points="258.4 234.02 257.16 231.29 213.54 231.29 209.78 233.93 258.4 234.02" style="fill:#29abe2"/><polygon points="260.81 239.35 259.57 236.62 215.62 236.62 216.69 239.35 260.81 239.35" style="fill:#29abe2"/><polygon points="263.23 244.68 261.99 241.94 217.71 241.94 215.77 244.59 263.23 244.68" style="fill:#29abe2"/><polygon points="265.64 250.01 264.4 247.27 219.79 247.27 220.86 250.01 265.64 250.01" style="fill:#29abe2"/><polygon points="268.05 255.34 266.81 252.6 221.87 252.6 223.05 255.25 268.05 255.34" style="fill:#29abe2"/><polygon points="270.66 261.11 269.42 258.37 224.13 258.37 225.2 261.11 270.66 261.11" style="fill:#29abe2"/><polygon points="273.07 266.44 271.84 263.7 226.21 263.7 227.28 266.44 273.07 266.44" style="fill:#29abe2"/><polygon points="275.49 271.76 274.25 269.03 228.29 269.03 229.36 271.76 275.49 271.76" style="fill:#29abe2"/><polygon points="278.05 277.41 276.81 274.68 230.5 274.68 231.57 277.41 278.05 277.41" style="fill:#29abe2"/></g><g id="doo-a"><circle cx="309" cy="264" r="16"/><polygon id="doo-a-2" data-name="doo-a" points="185.55 87.49 185.49 86.43 99 277.47 145.48 277.47 185.55 174.79 185.55 87.49"/></g></svg>