<svg id="Layer_1" data-name="Layer 1" xmlns="http://www.w3.org/2000/svg" viewBox="0 0 201.62 201.62"><defs><style>.cls-1{fill:none;}</style></defs><title>googleplus</title><circle class="cls-1" cx="100.81" cy="100.81" r="100.81"/><path d="M165.64,137a38.86,38.86,0,0,1,.74,7.56c0,26-17.42,44.4-43.65,44.4a45.45,45.45,0,0,1,0-90.9A43.39,43.39,0,0,1,153.17,110l-12.33,11.84a25.55,25.55,0,0,0-18.11-7c-15.5,0-28.15,12.84-28.15,28.71s12.65,28.71,28.15,28.71c18,0,24.74-13,25.79-19.59H122.73V137Zm43.88,1.52V125.37H196.27v13.19H183.08v13.26h13.19V165h13.25V151.82h13.2V138.56Z" transform="translate(-49.19 -44.75)"/></svg>