<svg id="Layer_1" data-name="Layer 1" xmlns="http://www.w3.org/2000/svg" viewBox="0 0 201.62 201.62"><defs><style>.cls-1{fill:none;}</style></defs><title>insta</title><circle class="cls-1" cx="100.81" cy="100.81" r="100.81"/><path d="M149.28,115.59a25.53,25.53,0,1,0,25.52,25.52A25.48,25.48,0,0,0,149.28,115.59Zm0,42.12a16.6,16.6,0,1,1,16.59-16.6,16.64,16.64,0,0,1-16.59,16.6Zm32.52-43.17a6,6,0,1,1-6-6A5.95,5.95,0,0,1,181.8,114.54Zm16.9,6c-.38-8-2.2-15-8-20.86s-12.88-7.64-20.86-8c-8.22-.47-32.85-.47-41.07,0-7.95.37-15,2.2-20.86,8s-7.64,12.88-8,20.85c-.47,8.22-.47,32.86,0,41.08.38,8,2.2,15,8,20.86s12.88,7.64,20.86,8c8.22.46,32.85.46,41.07,0,8-.38,15-2.2,20.86-8s7.64-12.89,8-20.86c.47-8.22.47-32.83,0-41Zm-10.62,49.87a16.8,16.8,0,0,1-9.46,9.46c-6.55,2.6-22.1,2-29.34,2s-22.82.58-29.35-2a16.8,16.8,0,0,1-9.46-9.46c-2.6-6.56-2-22.11-2-29.35s-.58-22.81,2-29.34a16.81,16.81,0,0,1,9.46-9.47c6.55-2.59,22.1-2,29.35-2s22.81-.57,29.34,2a16.78,16.78,0,0,1,9.46,9.47c2.6,6.55,2,22.1,2,29.34S190.68,163.93,188.08,170.46Z" transform="translate(-49.19 -44.75)"/></svg>