<svg id="Layer_1" data-name="Layer 1" xmlns="http://www.w3.org/2000/svg" viewBox="0 0 146.25 176.25"><defs><style>.cls-1{fill:none;stroke:#000;stroke-linecap:square;stroke-miterlimit:10;stroke-width:11.25px;}</style></defs><title>lock</title><path class="cls-1" d="M125.93,209.39a30,30,0,0,0,30,30h75a30,30,0,0,0,30-30v-45a15,15,0,0,0-15-15h-105a15,15,0,0,0-15,15Z" transform="translate(-120.3 -68.76)"/><path class="cls-1" d="M140.93,149.39v-45a30,30,0,0,1,30-30h45a30,30,0,0,1,30,30v45" transform="translate(-120.3 -68.76)"/><line class="cls-1" x1="73.13" y1="125.63" x2="73.13" y2="140.63"/></svg>