<svg id="Layer_1" data-name="Layer 1" xmlns="http://www.w3.org/2000/svg" viewBox="0 0 723 580"><defs><style>.cls-1{fill:#f2f2f2;}.cls-2{fill:#90caf9;}.cls-2,.cls-3{fill-rule:evenodd;}.cls-3{fill:gray;}</style></defs><title>logo</title><rect class="cls-1" width="723" height="580"/><path class="cls-2" d="M676.46,355.31c-51.39-10.85-99.18-9.76-150.57,1.09-30.52-15.54-39.08-.84-29.84,18.74-9.76,29.81-9.87,72.61-.3,102.7a352.16,352.16,0,0,0-39.63,22.58c239.59-115.35,477.6,102.77,563.19-70.35-22.55,19.26-45.93,31.15-70.07,38,7-29.21,6.14-66.93-2.7-94,9.22-19.58.66-34.29-29.84-18.74-51.39-10.85-99.2-9.76-150.59,1.09-30.49-15.54-39.06-.84-29.84,18.74-7.39,22.64-9.25,52.73-5.51,79.07-6.22-1-12.44-1.93-18.71-2.81,3.41-25.91,1.5-55.2-5.75-77.35,9.21-19.58.65-34.29-29.84-18.74Z" transform="translate(-368 -165)"/><path class="cls-3" d="M1062.79,431.74c-22.5,128.66-126,128.17-216.19,112.78-120.15-20.48-269.16-87-433.95-8.34C578.4,430.92,726.59,494.64,850,514.55c82.73,13.34,171.07,3.19,212.75-82.81Z" transform="translate(-368 -165)"/></svg>