<svg id="Layer_1" data-name="Layer 1" xmlns="http://www.w3.org/2000/svg" viewBox="0 0 53.53 48.55"><defs><style>.cls-1{fill:#4a4a4b;}.cls-1,.cls-2{fill-rule:evenodd;}.cls-2{fill:#efa937;}</style></defs><path class="cls-1" d="M34.51,177.87c-5.36-11.75-2.69-22.18,5.89-23.92-4.94,4.47-5.68,13.57-1.13,23.54,4.39,9.62,12.51,17.43,20.55,20.59C50.73,198,39.74,189.31,34.51,177.87Z" transform="translate(-31.74 -150.57)"/><path class="cls-2" d="M45,177c-6.09-13.36-2.7-25.15,7.57-26.35s23.55,8.66,29.64,22,2.7,25.14-7.57,26.34S51.12,190.37,45,177Zm8.75-4a35.42,35.42,0,0,0,10.83,13.46c12.35,9.18,18.64,2.46,12.32-11.38A35.53,35.53,0,0,0,66.1,161.6C53.75,152.43,47.46,159.15,53.78,173Z" transform="translate(-31.74 -150.57)"/><path class="cls-1" d="M71.2,187.45C75,187,76,182.2,72.68,175A28.52,28.52,0,0,0,64,164.26a22.08,22.08,0,0,0-4.16-2.48,39.55,39.55,0,0,1,8.66,12.12A26.51,26.51,0,0,1,71.2,187.45Z" transform="translate(-31.74 -150.57)"/></svg>