<svg id="Layer_1" data-name="Layer 1" xmlns="http://www.w3.org/2000/svg" viewBox="0 0 201.62 201.62"><defs><style>.cls-1{fill:none;}</style></defs><title>twitter</title><circle class="cls-1" cx="100.81" cy="100.81" r="100.81"/><path d="M188.82,120.83c.06.89.06,1.77.06,2.65,0,27-20.53,58.07-58.06,58.07a57.66,57.66,0,0,1-31.34-9.16,42.05,42.05,0,0,0,4.93.25,40.83,40.83,0,0,0,25.33-8.72,20.44,20.44,0,0,1-19.08-14.15,25.77,25.77,0,0,0,3.86.31,21.71,21.71,0,0,0,5.37-.69,20.42,20.42,0,0,1-16.37-20v-.25a20.71,20.71,0,0,0,9.23,2.59,20.44,20.44,0,0,1-6.32-27.3,58,58,0,0,0,42.08,21.36,22.82,22.82,0,0,1-.51-4.68,20.43,20.43,0,0,1,35.32-14,40,40,0,0,0,13-4.93,20.35,20.35,0,0,1-9,11.25,40.75,40.75,0,0,0,11.75-3.16,44,44,0,0,1-10.23,10.55Z" transform="translate(-49.19 -44.75)"/></svg>