<svg id="Layer_1" data-name="Layer 1" xmlns="http://www.w3.org/2000/svg" viewBox="0 0 201.62 201.62"><defs><style>.cls-1{fill:none;}</style></defs><title>youtube</title><circle class="cls-1" cx="100.81" cy="100.81" r="100.81"/><path d="M195.52,117.79A12.13,12.13,0,0,0,187,109.2c-7.53-2-37.72-2-37.72-2s-30.2,0-37.73,2a12.13,12.13,0,0,0-8.53,8.59c-2,7.58-2,23.39-2,23.39s0,15.81,2,23.39a12,12,0,0,0,8.53,8.46c7.53,2,37.73,2,37.73,2s30.19,0,37.72-2a12,12,0,0,0,8.53-8.46c2-7.58,2-23.39,2-23.39S197.54,125.37,195.52,117.79Zm-56.13,37.75V126.82l25.24,14.36-25.24,14.36Z" transform="translate(-49.19 -44.75)"/></svg>