<svg xmlns="http://www.w3.org/2000/svg" viewBox="0 0 171.9 126.66"><defs><style>.cls-1{fill:#f7931e;}.cls-2{fill:#487c27;}.cls-3{fill:#588737;}.cls-4{fill:#306d10;}.cls-5{fill:#033a00;}.cls-6{fill:#316b17;}.cls-7{fill:#498223;}.cls-8{fill:#497230;}.cls-9{fill:#4f843e;}.cls-10{fill:#7cab5d;}.cls-11{fill:#5c8e53;}.cls-12{fill:#4f8726;}.cls-13{fill:#c1e344;}.cls-14{fill:#b6cf13;}.cls-15{fill:#dfe35b;}.cls-16{fill:#d6c827;}.cls-17{fill:#e2e414;}.cls-18{fill:#f8bd77;}.cls-19{fill:#fba000;}.cls-20{fill:#e7b300;}.cls-21{fill:#ff9f68;}.cls-22{fill:#ffe5ee;}.cls-23{fill:#ffaf7b;}.cls-24{fill:#ff9f00;}.cls-25{fill:#f5b61b;}.cls-26{fill:#ffd469;}.cls-27{fill:#f0cbae;}.cls-28{fill:#f79d01;}.cls-29{fill:#f5c68e;}.cls-30{fill:#fd9a00;}.cls-31{fill:#ffab1e;}.cls-32{fill:#ffa823;}.cls-33{fill:#f3c52a;}.cls-34{fill:#ffa000;}.cls-35{fill:#ff9d01;}.cls-36{fill:#ef7a11;}.cls-37{fill:#ddbd85;}.cls-38{fill:#ffc27b;}.cls-39{fill:#f47204;}.cls-40{fill:#f29f25;}.cls-41{fill:#ffb825;}.cls-42{fill:#f89e00;}.cls-43{fill:#fb9205;}.cls-44{fill:#efa937;}.cls-45{fill:#fda83e;}.cls-46{fill:#ff9806;}.cls-47{fill:#fd8e00;}.cls-48{fill:#fa971f;}.cls-49{fill:#0b3f00;}.cls-50{fill:#ffa502;}.cls-51{fill:#fc8900;}.cls-52{fill:#ff9c04;}.cls-53{fill:#ffba16;}.cls-54{fill:#fa940b;}.cls-55{fill:#ff8102;}.cls-56{fill:#fc8300;}.cls-57{fill:#ff9f5b;}.cls-58{fill:#ff9b05;}.cls-59{fill:#ffa916;}.cls-60{fill:#ff9d00;}.cls-61{fill:#fba20a;}.cls-62{fill:#fe8802;}.cls-63{fill:#ff7a04;}.cls-64{fill:#fc8b01;}.cls-65{fill:#ff8b03;}.cls-66{fill:#fb8a00;}</style></defs><title>logo</title><g id="Layer_3" data-name="Layer 3"><polygon class="cls-1" points="98.59 0 89.41 8.71 91.22 8.89 98.59 2.54 98.59 0"/><path class="cls-1" d="M293.76,153.54l-5.62-2-.09-.14,5.71,2.13-21.88-21L261.8,128l-12.57-1.53-17,3v5.06L232.07,122l-2.28-1.78.51,1.78-.51,7.83-9.18,2.84L218,136.77l4.43-7.62-33.54-3.43-14.23,7.75-16.9,8.89-9.27,9.53-8,8.52-9.27,14,15.24,1.78,11.82.32,12.85-2.48,10.33-4,9.72-4.7-4.57,17.74.64,20.12,5,13.6,16.24,18.41,16.44,9.19-2.33-1,3.95,2,7.83.67,9.3.68,3.11.13,2.6-.56,5.21-1.11-6.7,1.43,19.94-5.07,6.17-2.88,11.62-8.53,9.61-10.92,7.66-19,.18-24.32Zm-60.58-14.46,7.28-5.61,2.53-2,.65-.11Z" transform="translate(-131.2 -120.26)"/></g><g id="Orange"><polygon class="cls-2" points="0 54.19 9.28 40.15 19.06 44.91 0 54.19"/><polygon class="cls-3" points="15.25 55.97 0 54.19 19.06 44.91 15.25 55.97"/><polygon class="cls-4" points="31.13 39.23 17.28 31.64 9.28 40.15 19.06 44.91 31.13 39.23"/><polygon class="cls-5" points="43.45 33.29 26.55 22.11 17.28 31.64 31.13 39.23 43.45 33.29"/><polygon class="cls-6" points="39.91 53.8 43.45 33.29 31.13 39.23 27.06 56.28 39.91 53.8"/><polygon class="cls-7" points="15.25 55.97 27.06 56.28 31.13 39.23 19.06 44.91 15.25 55.97"/><polygon class="cls-8" points="26.55 22.11 43.45 13.21 62.95 23.23 43.45 33.29 26.55 22.11"/><polygon class="cls-9" points="57.68 5.46 43.45 13.21 62.95 23.23 78.23 15.31 57.68 5.46"/><polygon class="cls-10" points="91.22 8.89 57.68 5.46 78.23 15.31 91.22 8.89"/><polygon class="cls-11" points="80.12 28.03 91.22 8.89 78.23 15.31 80.12 28.03"/><polygon class="cls-12" points="62.95 23.23 59.97 45.1 80.12 28.03 78.23 15.31 62.95 23.23"/><polygon class="cls-13" points="53.33 28.32 50.24 49.8 59.97 45.1 62.95 23.23 53.33 28.32"/><polygon class="cls-13" points="89.41 8.71 98.59 0 98.59 2.54 91.22 8.89 89.41 8.71"/><polygon class="cls-14" points="100.88 1.78 98.59 0 99.1 1.78 100.88 1.78"/><polygon class="cls-15" points="101.06 14.23 100.88 1.78 99.1 1.78 98.59 9.61 101.06 14.23 101.06 14.23"/><polygon class="cls-16" points="101.06 14.23 93.69 19.09 101.98 18.82 101.06 14.23"/><polygon class="cls-17" points="109.27 13.21 101.98 18.82 101.06 14.23 109.27 13.21"/><polygon class="cls-18" points="85 19.32 89.41 12.45 98.59 9.61 85 19.32"/><polygon class="cls-19" points="101.06 9.17 118.03 6.22 101.06 14.23 101.06 9.17"/><polygon class="cls-20" points="109.27 13.21 118.03 6.22 101.06 14.23 109.27 13.21"/><polygon class="cls-21" points="130.61 7.75 118.03 6.22 111.79 11.2 130.61 7.75"/><polygon class="cls-22" points="140.69 12.32 130.61 7.75 119.86 9.72 140.69 12.32"/><polygon class="cls-23" points="101.98 18.82 122.22 18.17 112.44 11.08 101.98 18.82"/><polygon class="cls-24" points="140.69 12.32 122.22 18.17 112.44 11.08 119.86 9.72 140.69 12.32"/><polygon class="cls-25" points="93.69 19.09 85 19.32 98.59 9.61 101.06 14.23 93.69 19.09"/><polygon class="cls-26" points="122.22 18.17 162.56 33.29 140.69 12.32 122.22 18.17"/><polygon class="cls-27" points="162.56 33.29 171.9 55.69 156.07 30.98 162.56 33.29"/><polygon class="cls-28" points="121.83 18.17 171.9 55.69 156.03 29.81 121.83 18.17"/><polygon class="cls-29" points="171.9 55.69 171.71 80.01 164.05 49.46 171.9 55.69"/><polygon class="cls-30" points="101.98 18.82 112.06 58.53 122.22 18.17 101.98 18.82"/><polygon class="cls-31" points="112.06 58.89 122.22 18.17 135.72 29.07 112.06 58.89"/><polygon class="cls-32" points="128.9 85.63 112.06 58.89 125.44 42.17 128.9 85.63"/><polygon class="cls-33" points="90.37 30.07 85 19.32 80.12 28.03 90.37 30.07"/><polygon class="cls-34" points="101.98 18.82 90.37 30.07 85 19.32 101.98 18.82"/><polygon class="cls-35" points="105.48 32.4 101.98 18.82 90.37 30.07 105.48 32.4"/><polygon class="cls-36" points="55.4 62.84 59.97 45.1 80.12 28.03 55.4 62.84"/><polygon class="cls-37" points="56.03 82.96 55.4 62.84 60.11 72.74 56.03 82.96"/><polygon class="cls-38" points="64.12 50.38 60.11 72.74 55.4 62.84 64.12 50.38"/><polygon class="cls-39" points="80.12 28.03 63.58 64.5 60.11 72.74 64.12 50.95 76.09 33.29 80.12 28.03"/><polygon class="cls-40" points="78.39 86.65 63.31 65.14 80.12 28.03 78.39 86.65"/><polygon class="cls-41" points="102.66 62.62 78.39 86.65 80.12 28.03 102.66 62.62"/><polygon class="cls-42" points="116.76 66.35 106.03 32.4 102.66 62.62 116.76 66.35"/><polygon class="cls-43" points="152.97 80.55 149.6 38.72 135.72 29.07 152.97 80.55"/><polygon class="cls-44" points="135.72 29.07 128.9 85.63 152.97 80.55 135.72 29.07"/><polygon class="cls-45" points="125.44 42.17 135.72 29.07 128.9 85.63 125.44 42.17"/><polygon class="cls-46" points="152.97 80.55 171.71 80.01 164.05 49.46 152.97 80.55"/><polygon class="cls-47" points="150.62 39.47 164.05 49.46 152.97 80.55 149.66 39.47 150.62 39.47"/><polygon class="cls-48" points="171.71 80.01 164.05 99.01 152.97 80.55 171.71 80.01 171.71 80.01"/><polygon class="cls-49" points="39.91 53.8 50.24 49.8 53.33 28.32 43.45 33.29 39.91 53.8"/><polygon class="cls-50" points="128.9 85.63 152.97 80.55 164.05 99.01 128.9 85.63"/><polygon class="cls-51" points="164.05 99.01 154.44 109.93 128.9 85.63 164.05 99.01"/><polygon class="cls-52" points="128.9 85.63 116.76 66.35 102.66 62.62 128.9 85.63"/><polygon class="cls-53" points="80.12 28.03 106.03 32.4 102.66 62.62 80.12 28.03"/><polygon class="cls-54" points="102.66 62.62 78.39 86.65 128.9 85.63 102.66 62.62"/><polygon class="cls-55" points="142.82 118.47 136.65 121.34 128.9 85.63 142.82 118.47"/><polygon class="cls-56" points="154.44 109.93 142.82 118.47 128.9 85.63 154.44 109.93"/><polygon class="cls-57" points="56.03 82.96 61.06 96.56 60.11 72.74 56.03 82.96"/><polygon class="cls-58" points="77.31 114.97 61.06 96.56 78.39 86.65 77.31 114.97"/><polygon class="cls-59" points="63.31 65.14 78.39 86.65 68.42 92.35 63.31 65.14"/><polygon class="cls-60" points="60.11 72.74 60.11 72.74 68.42 92.35 63.31 65.14 60.11 72.74"/><polygon class="cls-61" points="61.06 96.56 68.42 92.35 60.11 72.74 61.06 96.56"/><polygon class="cls-62" points="77.31 114.97 95.09 124.92 78.39 86.65 77.31 114.97"/><polygon class="cls-63" points="116.71 126.41 95.09 124.92 78.39 86.65 116.71 126.41"/><polygon class="cls-64" points="110.1 85.71 78.39 86.65 116.71 126.41 110.1 85.71"/><polygon class="cls-65" points="136.65 121.34 116.71 126.41 128.9 85.63 136.65 121.34"/><polygon class="cls-66" points="110.1 85.71 128.9 85.63 116.71 126.41 110.1 85.71"/></g></svg>