<svg xmlns="http://www.w3.org/2000/svg" viewBox="0 0 7000 7000"><defs><style>.cls-1{isolation:isolate;}.cls-2{fill:none;}.cls-3{fill:#00b753;}.cls-4{fill:#ccc;mix-blend-mode:multiply;}.cls-5{fill:#fff;}</style></defs><title>approved-green</title><g class="cls-1"><g id="Layer_1" data-name="Layer 1"><rect class="cls-2" width="7000" height="7000"/><circle class="cls-3" cx="3500" cy="3500" r="2209.38"/><path class="cls-4" d="M4559,2645.87,3353.63,3692.69l-398-458.17c-68.29-78.61-187.38-87-266-18.69l-244.44,212.34c-78.61,68.3-87,187.39-18.68,266l734,844.93c68.29,78.61,187.38,87,266,18.69l386.78-336L5018.56,3175c78.63-68.28,87-187.39,18.7-266l-212.33-244.42C4756.64,2586,4637.56,2577.59,4559,2645.87Z"/><path class="cls-5" d="M4279.09,2506.71l-1129,1128.7-429.16-429.15c-73.63-73.63-193-73.63-266.64,0l-229,228.95c-73.63,73.63-73.64,193,0,266.65l791.42,791.42c73.64,73.63,193,73.63,266.65,0L3645.69,4131l1129-1128.68c73.65-73.63,73.66-193,0-266.66l-228.94-229C4472.1,2433.1,4352.73,2433.09,4279.09,2506.71Z"/></g></g></svg>