<svg id="Layer_1" data-name="Layer 1" xmlns="http://www.w3.org/2000/svg" viewBox="0 0 145 69"><defs><style>.cls-1{fill:#e6e6e6;}.cls-2{fill:#b3b3b3;}</style></defs><title>card-placeholder-1</title><path class="cls-1" d="M725,502h52.28a1.72,1.72,0,0,1,1.72,1.72V569a2,2,0,0,1-2,2H725a2,2,0,0,1-2-2V504A2,2,0,0,1,725,502Z" transform="translate(-723 -502)"/><rect class="cls-2" x="78" y="1" width="47" height="8" rx="2"/><rect class="cls-1" x="78" y="17" width="67" height="8" rx="2"/><rect class="cls-2" x="78" y="31" width="19" height="8" rx="2"/><rect class="cls-1" x="97" y="45" width="12" height="8" rx="2"/><rect class="cls-1" x="91" y="45" width="5" height="8" rx="2"/><rect class="cls-1" x="110" y="45" width="5" height="8" rx="2"/><rect class="cls-2" x="79" y="59" width="28" height="8" rx="2"/></svg>